
<svg width="64" height="19" viewBox="0 0 64 19" fill="none" xmlns="http://www.w3.org/2000/svg">
<g clip-path="url(#clip0)">
<path fill-rule="evenodd" clip-rule="evenodd" d="M25.2714 13.7784C22.6789 13.7784 20.7982 11.8438 20.7982 9.16773C20.7974 6.49552 22.678 4.55526 25.2705 4.55526C27.8594 4.55526 29.7437 6.49459 29.7445 9.16679C29.7445 11.8428 27.8604 13.7784 25.2714 13.7784ZM64 8.00062V7.41654C64 3.18556 60.6705 -0.000934313 56.238 2.05499e-07C53.1986 0.000623217 50.6278 1.58276 49.3434 3.94979C47.7698 1.55826 45.1005 0.0448571 41.9463 0.0453762C38.0906 0.0461031 34.8858 2.42331 33.6188 5.85943C32.3771 2.39309 29.1972 0.047453 25.2686 0.048076C21.5697 0.048076 18.4681 2.23796 17.104 5.45167C15.7654 2.2119 12.6839 0.049945 8.91239 0.049945L7.04606 0.0508795L7.04697 4.55806L8.9134 4.55713C11.5024 4.55713 13.3866 6.48462 13.3875 9.16959C13.3875 11.8455 11.5033 13.7803 8.91441 13.7803C6.32368 13.7812 4.44299 11.8465 4.44299 9.17043L4.44126 0.0508795L0 0.0517102L0.00172068 9.17136C0.00172068 14.3707 3.83387 18.2865 8.91441 18.2857C12.6093 18.2857 15.7132 16.097 17.0786 12.8845C18.4165 16.1245 21.4932 18.2845 25.2665 18.2838C28.639 18.2832 31.5096 16.4622 33.0279 13.7047V18.2803H37.4814V9.16596C37.4814 6.49365 39.3598 4.55349 41.9532 4.55256C44.5421 4.55256 46.4226 6.49189 46.4226 9.16409L46.4239 18.2811L50.8649 18.2802L50.8637 12.8599C52.2413 14.0981 54.1213 14.8385 56.2556 14.8385L56.4962 14.833C58.1167 14.9311 59.2428 16.0729 59.2428 17.6789V18.2803H64V17.6789C64 13.4496 60.6723 10.2614 56.2399 10.2624L56.0157 10.2641C54.3989 10.1679 53.2855 9.02329 53.2855 7.41748C53.2845 5.73701 54.5189 4.56709 56.265 4.56709C58.0066 4.56626 59.2428 5.73618 59.2428 7.41654V8.00062H64Z" fill="white"/>
</g>
<defs>
<clipPath id="clip0">
<path d="M0 0H64V19H0V0Z" fill="white"/>
</clipPath>
</defs>
</svg>
